<svg width="25" height="24" viewBox="0 0 25 24" fill="none" xmlns="http://www.w3.org/2000/svg">
<path d="M17.5 3.5H7.5C4.5 3.5 2.5 5 2.5 8.5V15.5C2.5 19 4.5 20.5 7.5 20.5H17.5C20.5 20.5 22.5 19 22.5 15.5V8.5C22.5 5 20.5 3.5 17.5 3.5ZM8.5 17.75H5.5C5.09 17.75 4.75 17.41 4.75 17C4.75 16.59 5.09 16.25 5.5 16.25H8.5C8.91 16.25 9.25 16.59 9.25 17C9.25 17.41 8.91 17.75 8.5 17.75ZM12.5 15C10.84 15 9.5 13.66 9.5 12C9.5 10.34 10.84 9 12.5 9C14.16 9 15.5 10.34 15.5 12C15.5 13.66 14.16 15 12.5 15ZM19.5 7.75H16.5C16.09 7.75 15.75 7.41 15.75 7C15.75 6.59 16.09 6.25 16.5 6.25H19.5C19.91 6.25 20.25 6.59 20.25 7C20.25 7.41 19.91 7.75 19.5 7.75Z" fill="#86BC24"/>
</svg>
