<svg width="24" height="25" viewBox="0 0 24 25" fill="none" xmlns="http://www.w3.org/2000/svg">
<path fill-rule="evenodd" clip-rule="evenodd" d="M14.4773 4.94209L21.746 17.5572C21.906 17.9338 21.976 18.2399 21.996 18.558C22.036 19.3012 21.776 20.0236 21.2661 20.5795C20.7562 21.1334 20.0663 21.4604 19.3164 21.5H4.6789C4.36896 21.4812 4.05901 21.4108 3.76906 21.3018C2.3193 20.7172 1.61942 19.0723 2.20932 17.6464L9.52809 4.93317C9.77804 4.48628 10.158 4.10082 10.6279 3.85309C11.9877 3.09902 13.7174 3.59447 14.4773 4.94209ZM12.8669 13.2557C12.8669 13.7314 12.477 14.1287 11.997 14.1287C11.5171 14.1287 11.1172 13.7314 11.1172 13.2557V10.4525C11.1172 9.97585 11.5171 9.59039 11.997 9.59039C12.477 9.59039 12.8669 9.97585 12.8669 10.4525V13.2557ZM11.997 17.5176C11.5171 17.5176 11.1172 17.1202 11.1172 16.6456C11.1172 16.169 11.5171 15.7726 11.997 15.7726C12.477 15.7726 12.8669 16.1601 12.8669 16.6347C12.8669 17.1202 12.477 17.5176 11.997 17.5176Z" fill="#AA1515"/>
</svg>
